<svg width="38" height="38" viewBox="0 0 38 38" fill="none" xmlns="http://www.w3.org/2000/svg">
<path fill-rule="evenodd" clip-rule="evenodd" d="M4 23.5C4 15.4919 10.4919 9 18.5 9C26.5081 9 33 15.4919 33 23.5C33 31.5081 26.5081 38 18.5 38C10.4919 38 4 31.5081 4 23.5ZM18.5 13C12.701 13 8 17.701 8 23.5C8 29.299 12.701 34 18.5 34C24.299 34 29 29.299 29 23.5C29 17.701 24.299 13 18.5 13Z" fill="#5A5A5A"/>
<path fill-rule="evenodd" clip-rule="evenodd" d="M8 27.5C8 21.701 12.701 17 18.5 17C24.299 17 29 21.701 29 27.5C29 33.299 24.299 38 18.5 38C12.701 38 8 33.299 8 27.5ZM18.5 21C14.9101 21 12 23.9101 12 27.5C12 31.0899 14.9101 34 18.5 34C22.0899 34 25 31.0899 25 27.5C25 23.9101 22.0899 21 18.5 21Z" fill="#9E9E9E"/>
<path fill-rule="evenodd" clip-rule="evenodd" d="M0 19C0 8.50659 8.50659 0 19 0C29.4934 0 38 8.50659 38 19C38 29.4934 29.4934 38 19 38C8.50659 38 0 29.4934 0 19ZM19 4C10.7157 4 4 10.7157 4 19C4 27.2843 10.7157 34 19 34C27.2843 34 34 27.2843 34 19C34 10.7157 27.2843 4 19 4Z" fill="white"/>
</svg>
