<svg width="320" height="320" viewBox="0 0 320 320" fill="none" xmlns="http://www.w3.org/2000/svg">
<path d="M206.969 202.562H197.5V162.794H206.969C222.119 162.794 233.481 149.538 233.481 136.281C233.481 121.131 220.225 109.769 206.969 109.769C191.819 107.875 178.562 121.131 178.562 136.281V183.625C178.562 219.606 148.262 249.906 112.281 249.906C76.3 249.906 46 219.606 46 181.731C46 143.856 76.3 115.45 112.281 115.45H121.75V155.219H112.281C97.1312 155.219 85.7687 168.475 85.7687 181.731C85.7687 196.881 99.025 208.244 112.281 208.244C125.537 208.244 140.688 196.881 140.688 181.731V136.281C140.688 100.3 170.988 70 206.969 70C242.95 70 273.25 98.4063 273.25 136.281C273.25 174.156 242.95 202.562 206.969 202.562Z" fill="white"/>
</svg>
