<svg width="320" height="320" viewBox="0 0 320 320" fill="none" xmlns="http://www.w3.org/2000/svg">
<path d="M43 141.896L147.253 95.7723L154.131 111.319L49.8781 157.443L43 141.896Z" fill="white"/>
<path d="M61.2068 183.048L165.459 136.925L171.528 150.642L67.2757 196.766L61.2068 183.048Z" fill="white"/>
<path d="M77.7952 220.543L182.048 174.419L188.926 189.965L84.6733 236.089L77.7952 220.543Z" fill="white"/>
<path d="M121.209 125.884L111.149 130.335L122.883 156.855L132.942 152.405L137.797 163.378L127.738 167.829L139.471 194.349L149.53 189.899L154.79 201.787L144.731 206.238L155.25 230.015L93.979 257.123L43 141.896L114.331 110.338L121.209 125.884Z" fill="white"/>
<path d="M272.306 178.226L200.975 209.785L149.996 94.5584L221.327 63L272.306 178.226Z" fill="#747474"/>
<path d="M272.306 178.226L157.994 228.801L149.902 210.511L264.214 159.937L272.306 178.226Z" fill="#747474"/>
<path d="M254.908 138.903L140.596 189.478L132.504 171.188L246.816 120.613L254.908 138.903Z" fill="#747474"/>
<path d="M238.32 101.409L124.008 151.983L115.511 132.779L229.823 82.2044L238.32 101.409Z" fill="#747474"/>
<path d="M299 110.5C299 118.508 292.508 125 284.5 125C276.492 125 270 118.508 270 110.5C270 102.492 276.492 96 284.5 96C292.508 96 299 102.492 299 110.5Z" fill="#D9D9D9"/>
<path d="M49 217.5C49 225.508 42.5081 232 34.5 232C26.4919 232 20 225.508 20 217.5C20 209.492 26.4919 203 34.5 203C42.5081 203 49 209.492 49 217.5Z" fill="white"/>
</svg>
