<svg width="2875" height="307" viewBox="0 0 2875 307" fill="none" xmlns="http://www.w3.org/2000/svg">
<path d="M1311.78 3.10547L1230.59 306.105L1219 303L1300.19 0L1311.78 3.10547Z" fill="white" fill-opacity="0.17"/>
<path fill-rule="evenodd" clip-rule="evenodd" d="M1629.56 74.8125C1643.09 74.8125 1655.15 76.6955 1665.75 80.4609C1676.35 84.087 1685.35 89.3176 1692.74 96.1514C1700.27 102.985 1705.99 111.213 1709.89 120.836C1713.8 130.32 1715.75 140.989 1715.75 152.844C1715.75 164.698 1713.8 175.437 1709.89 185.06C1705.99 194.682 1700.27 202.981 1692.74 209.954C1685.35 216.788 1676.35 222.088 1665.75 225.854C1655.15 229.48 1643.09 231.293 1629.56 231.293C1615.89 231.293 1603.69 229.48 1592.95 225.854C1582.21 222.088 1573.08 216.788 1565.54 209.954C1558.15 202.981 1552.5 194.683 1548.6 185.06C1544.83 175.437 1542.95 164.698 1542.95 152.844C1542.95 140.989 1544.9 130.32 1548.81 120.836C1552.71 111.213 1558.36 102.985 1565.75 96.1514C1573.15 89.3176 1582.21 84.087 1592.95 80.4609C1603.69 76.6954 1615.89 74.8125 1629.56 74.8125ZM1629.56 104.938C1619.8 104.938 1611.29 106.75 1604.04 110.376C1596.92 113.863 1591.35 119.163 1587.3 126.275C1583.4 133.388 1581.44 142.244 1581.44 152.844C1581.44 160.793 1582.56 167.767 1584.79 173.764C1587.16 179.76 1590.44 184.781 1594.62 188.825C1598.81 192.87 1603.83 195.938 1609.69 198.03C1615.68 199.983 1622.31 200.959 1629.56 200.959C1639.32 200.959 1647.76 199.146 1654.87 195.52C1661.98 191.894 1667.49 186.525 1671.4 179.412C1675.3 172.16 1677.26 163.304 1677.26 152.844C1677.26 144.894 1676.14 137.99 1673.91 132.133C1671.68 126.136 1668.47 121.115 1664.29 117.07C1660.1 113.026 1655.01 110.028 1649.01 108.075C1643.16 105.983 1636.67 104.938 1629.56 104.938Z" fill="white"/>
<path d="M137.125 188.74C137.125 195.436 138.768 200.494 142.055 203.913C145.484 207.332 150.272 209.042 156.417 209.042C161.99 209.042 166.848 207.759 170.992 205.194C175.279 202.63 178.64 199.07 181.069 194.512C183.642 189.81 184.926 184.538 184.926 178.697V119.931H212.149V228.917H185.783V208.603C182.309 214.825 177.598 219.962 171.637 224.003C164.635 228.704 156.346 231.053 146.771 231.053C139.198 231.053 132.624 229.487 127.051 226.354C121.62 223.077 117.403 218.658 114.402 213.102C111.545 207.546 110.114 201.277 110.114 194.297V119.931H137.125V188.74Z" fill="white"/>
<path d="M267.607 119.931H297.401V141.087H267.607V193.658C267.608 198.928 269.034 202.846 271.892 205.41C274.75 207.974 279.253 209.258 285.397 209.258C287.826 209.258 289.971 209.115 291.828 208.83C293.828 208.403 295.687 207.904 297.401 207.334V228.274C295.687 229.129 293.258 229.771 290.114 230.198C286.971 230.768 283.47 231.053 279.611 231.053C266.178 231.053 256.244 227.92 249.813 221.651C243.526 215.24 240.384 205.695 240.384 193.016V141.087H219.375V119.931H240.384V95.1396L267.607 85.0957V119.931Z" fill="white"/>
<path d="M332.662 188.74C332.662 195.436 334.305 200.494 337.591 203.913C341.02 207.332 345.808 209.042 351.953 209.042C357.526 209.042 362.387 207.759 366.531 205.194C370.818 202.63 374.177 199.07 376.606 194.512C379.179 189.81 380.463 184.538 380.463 178.697V119.931H407.689V228.917H381.322V208.599C377.848 214.823 373.135 219.961 367.173 224.003C360.171 228.704 351.882 231.053 342.308 231.053C334.734 231.053 328.161 229.487 322.588 226.354C317.157 223.077 312.94 218.658 309.938 213.102C307.081 207.546 305.65 201.277 305.65 194.297V119.931H332.662V188.74Z" fill="white"/>
<path fill-rule="evenodd" clip-rule="evenodd" d="M549.04 117.792C559.901 117.792 569.334 120.071 577.337 124.63C585.34 129.046 591.557 135.318 595.987 143.438C600.417 151.559 602.631 161.033 602.631 171.859C602.631 173.854 602.561 175.707 602.418 177.416C602.275 179.125 602.059 180.836 601.773 182.545H519.272C520.234 190.452 522.725 196.791 526.749 201.562C532.179 207.688 539.824 210.751 549.685 210.751C555.401 210.751 560.404 209.683 564.691 207.546C568.977 205.409 572.121 202.133 574.121 197.718H599.631C596.058 207.975 589.983 216.096 581.409 222.079C572.978 228.062 562.33 231.053 549.469 231.053C537.894 231.053 527.747 228.632 519.03 223.788C510.457 218.944 503.74 212.248 498.882 203.701C494.166 195.153 491.807 185.323 491.807 174.211C491.807 163.099 494.166 153.337 498.882 144.932C503.74 136.385 510.457 129.762 519.03 125.061C527.604 120.217 537.608 117.792 549.04 117.792ZM548.612 138.094C539.467 138.094 532.179 141.23 526.749 147.498C523.224 151.677 520.882 157.092 519.707 163.74H575.188C574.509 156.008 572.229 150.021 568.335 145.786C563.619 140.658 557.043 138.094 548.612 138.094Z" fill="white"/>
<path fill-rule="evenodd" clip-rule="evenodd" d="M641.279 138.156C643.615 132.776 647.33 128.338 652.427 124.845C659.429 120.144 668.076 117.792 678.364 117.792C688.081 117.792 696.513 120.144 703.658 124.845C710.946 129.404 716.591 135.888 720.592 144.293C724.593 152.698 726.594 162.599 726.594 173.995C726.594 185.535 724.523 195.58 720.379 204.128C716.235 212.676 710.445 219.302 703.014 224.003C695.583 228.704 686.793 231.053 676.647 231.053C666.216 231.053 657.641 228.632 650.925 223.788C646.2 220.204 642.776 215.661 640.635 210.164V228.917H614.269V75.0527H641.279V138.156ZM669.575 139.803C661.001 139.803 654.07 142.869 648.782 148.995C643.495 154.978 640.851 163.454 640.851 174.423C640.851 185.392 643.495 193.87 648.782 199.854C654.07 205.837 661.071 208.83 669.788 208.83C678.505 208.83 685.436 205.837 690.581 199.854C695.726 193.728 698.297 185.18 698.297 174.211C698.297 163.241 695.655 154.763 690.368 148.779C685.224 142.796 678.292 139.803 669.575 139.803Z" fill="white"/>
<path fill-rule="evenodd" clip-rule="evenodd" d="M790.029 117.792C801.748 117.792 811.966 120.217 820.684 125.061C829.4 129.762 836.189 136.315 841.048 144.72C845.906 153.125 848.336 162.883 848.336 173.995C848.336 185.108 845.834 195.011 840.832 203.701C835.973 212.249 829.185 218.944 820.468 223.788C811.751 228.632 801.604 231.053 790.029 231.053C778.455 231.053 768.238 228.631 759.378 223.788C750.661 218.944 743.871 212.249 739.013 203.701C734.154 195.011 731.723 185.107 731.723 173.995C731.723 162.883 734.154 153.125 739.013 144.72C743.872 136.314 750.661 129.762 759.378 125.061C768.238 120.217 778.454 117.792 790.029 117.792ZM790.029 139.375C781.313 139.375 774.095 142.439 768.379 148.564C762.663 154.69 759.807 163.098 759.807 173.783C759.807 181.048 761.09 187.387 763.662 192.8C766.377 198.071 769.951 202.206 774.381 205.198C778.954 208.047 784.171 209.47 790.029 209.47C795.745 209.47 800.892 208.047 805.465 205.198C810.038 202.206 813.61 198.071 816.183 192.8C818.754 187.387 820.039 181.048 820.039 173.783C820.039 163.098 817.183 154.69 811.467 148.564C805.894 142.439 798.746 139.375 790.029 139.375Z" fill="white"/>
<path fill-rule="evenodd" clip-rule="evenodd" d="M905.727 117.792C920.731 117.792 932.093 121.213 939.81 128.051C947.526 134.747 951.385 144.65 951.385 157.757V207.118C951.385 210.537 951.598 214.03 952.026 217.592C952.598 221.153 953.385 224.928 954.385 228.917H927.377C926.662 226.068 926.092 222.932 925.663 219.513C925.476 217.27 925.355 214.721 925.29 211.866C922.418 217.414 918.401 221.817 913.227 225.069C906.796 229.058 898.866 231.053 889.435 231.053C878.431 231.053 869.642 228.347 863.068 222.934C856.638 217.377 853.422 209.968 853.422 200.708C853.422 190.736 857.066 182.829 864.354 176.988C871.642 171.147 881.931 167.228 895.221 165.233L924.374 160.845V155.405C924.374 149.707 922.731 145.43 919.444 142.581C916.301 139.59 911.442 138.094 904.87 138.094C898.44 138.094 893.293 139.305 889.435 141.727C885.719 144.006 883.433 147.356 882.575 151.772H856.638C857.781 141.658 862.638 133.465 871.212 127.196C879.786 120.928 891.293 117.792 905.727 117.792ZM899.725 181.69C893.294 182.688 888.433 184.468 885.146 187.032C882.003 189.597 880.43 193.159 880.43 197.718C880.43 201.849 881.933 205.055 884.934 207.334C887.934 209.471 892.079 210.539 897.366 210.539C905.083 210.539 911.514 208.614 916.658 204.768C921.802 200.921 924.374 196.22 924.374 190.664V177.947L899.725 181.69Z" fill="white"/>
<path fill-rule="evenodd" clip-rule="evenodd" d="M1147 228.917H1120.63V210.992C1118.23 216.151 1114.45 220.491 1109.27 224.003C1102.13 228.704 1093.62 231.053 1083.76 231.053C1073.76 231.053 1065.04 228.773 1057.61 224.215C1050.32 219.514 1044.68 212.961 1040.68 204.556C1036.68 196.15 1034.67 186.247 1034.67 174.85C1034.67 163.311 1036.75 153.267 1040.89 144.72C1045.03 136.172 1050.82 129.546 1058.25 124.845C1065.83 120.144 1074.62 117.792 1084.62 117.792C1094.91 117.792 1103.41 120.287 1110.13 125.272C1114.37 128.332 1117.58 132.16 1119.77 136.754V75.0527H1147V228.917ZM1091.48 140.018C1082.91 140.018 1075.97 143.081 1070.69 149.207C1065.4 155.191 1062.75 163.668 1062.75 174.638C1062.75 185.607 1065.4 194.085 1070.69 200.068C1075.97 206.051 1082.98 209.042 1091.69 209.042C1100.41 209.042 1107.34 206.051 1112.49 200.068C1117.77 193.942 1120.42 185.393 1120.42 174.423C1120.42 163.454 1117.77 154.978 1112.49 148.995C1107.2 143.012 1100.2 140.018 1091.48 140.018Z" fill="white"/>
<path d="M2671.43 75.0215C2684.4 75.0215 2695.42 76.8348 2704.48 80.4609C2713.55 84.087 2720.45 89.1776 2725.19 95.7324C2729.93 102.287 2732.52 110.097 2732.93 119.162H2717.87C2717.45 111.631 2715.29 105.495 2711.39 100.753C2707.62 95.8718 2702.25 92.2459 2695.28 89.875C2688.44 87.5041 2680.29 86.3184 2670.8 86.3184C2661.18 86.3184 2652.95 87.5041 2646.12 89.875C2639.28 92.1064 2634.05 95.3142 2630.43 99.498C2626.94 103.682 2625.2 108.703 2625.2 114.561C2625.2 121.952 2627.15 127.461 2631.05 131.087C2635.1 134.713 2640.82 137.363 2648.21 139.036C2655.74 140.71 2664.8 142.244 2675.4 143.639C2684.33 144.754 2692.63 146.149 2700.3 147.822C2707.97 149.356 2714.66 151.658 2720.38 154.727C2726.24 157.655 2730.77 161.77 2733.98 167.069C2737.33 172.369 2739 179.272 2739 187.779C2739 196.566 2736.56 204.236 2731.68 210.791C2726.8 217.206 2719.54 222.158 2709.92 225.645C2700.44 229.131 2688.58 230.874 2674.36 230.874C2658.6 230.874 2645.77 228.852 2635.87 224.808C2625.96 220.624 2618.57 214.836 2613.69 207.444C2608.95 200.053 2606.23 191.475 2605.53 181.713H2621.43C2621.85 190.22 2624.15 197.263 2628.33 202.842C2632.52 208.42 2638.52 212.604 2646.33 215.394C2654.27 218.183 2663.76 219.577 2674.78 219.577C2685.79 219.577 2694.86 218.323 2701.97 215.812C2709.22 213.302 2714.59 209.745 2718.08 205.143C2721.71 200.54 2723.52 195.032 2723.52 188.616C2723.52 182.619 2722.26 177.738 2719.75 173.973C2717.38 170.207 2713.9 167.279 2709.29 165.187C2704.69 163.095 2699.18 161.42 2692.77 160.165C2686.35 158.91 2679.24 157.795 2671.43 156.818C2662.78 155.563 2654.69 154.168 2647.16 152.634C2639.63 151.1 2633.08 148.939 2627.5 146.149C2622.06 143.36 2617.8 139.525 2614.74 134.644C2611.67 129.762 2610.13 123.556 2610.13 116.024C2610.13 107.238 2612.64 99.8466 2617.67 93.8496C2622.83 87.7131 2630.01 83.0407 2639.21 79.833C2648.42 76.6254 2659.16 75.0215 2671.43 75.0215Z" fill="white"/>
<path fill-rule="evenodd" clip-rule="evenodd" d="M1478.97 76.6953C1486.36 76.6953 1492.91 77.323 1498.63 78.5781C1504.35 79.8333 1509.3 81.7162 1513.48 84.2266C1517.81 86.7369 1521.36 89.7352 1524.15 93.2217C1526.94 96.7083 1528.96 100.614 1530.22 104.938C1531.61 109.261 1532.31 114.072 1532.31 119.372C1532.31 129.274 1529.73 137.503 1524.57 144.058C1519.55 150.473 1512.86 154.865 1504.49 157.236V158.701C1509.65 159.538 1513.97 161.142 1517.46 163.513C1521.08 165.884 1523.8 169.022 1525.62 172.927C1527.57 176.832 1528.55 181.574 1528.55 187.152V213.511C1528.55 216.44 1528.62 219.09 1528.76 221.461C1529.03 223.832 1529.52 226.412 1530.22 229.201H1491.52C1490.96 226.97 1490.61 224.598 1490.47 222.088C1490.33 219.438 1490.26 216.648 1490.26 213.72V193.01C1490.26 188.407 1489.57 184.711 1488.17 181.922C1486.78 178.993 1484.41 176.902 1481.06 175.646C1477.85 174.252 1473.39 173.554 1467.67 173.554H1421.86V229.201H1383.78V76.6953H1478.97ZM1421.86 146.149H1466.62C1476.8 146.149 1483.85 144.266 1487.75 140.501C1491.66 136.596 1493.61 131.505 1493.61 125.229C1493.61 121.603 1492.98 118.535 1491.73 116.024C1490.47 113.375 1488.59 111.353 1486.08 109.958C1483.71 108.424 1480.85 107.308 1477.5 106.61C1474.29 105.913 1470.67 105.564 1466.62 105.564H1421.86V146.149Z" fill="white"/>
<path fill-rule="evenodd" clip-rule="evenodd" d="M1804.32 76.6953C1822.17 76.6953 1837.02 79.903 1848.88 86.3184C1860.87 92.5943 1869.86 101.451 1875.86 112.887C1881.86 124.323 1884.86 137.712 1884.86 153.053C1884.86 165.465 1882.97 176.413 1879.21 185.896C1875.44 195.38 1870.07 203.33 1863.1 209.745C1856.13 216.161 1847.69 221.042 1837.79 224.39C1827.89 227.597 1816.8 229.201 1804.52 229.201H1730.47V76.6953H1804.32ZM1768.54 199.704H1796.99C1805.64 199.704 1813.1 198.658 1819.38 196.566C1825.65 194.474 1830.74 191.406 1834.65 187.361C1838.55 183.177 1841.48 178.156 1843.44 172.299C1845.39 166.441 1846.36 159.816 1846.36 152.425C1846.36 141.128 1844.27 132.133 1840.09 125.438C1836.04 118.744 1830.33 113.863 1822.93 110.795C1815.54 107.727 1806.9 106.192 1796.99 106.192H1768.54V199.704Z" fill="white"/>
<path d="M1937.9 136.526H2018.23V76.6953H2056.31V229.201H2018.23V166.441H1937.9V229.201H1899.83V76.6953H1937.9V136.526Z" fill="white"/>
<path fill-rule="evenodd" clip-rule="evenodd" d="M2246.15 229.201H2204.73L2193.27 199.285H2119.62L2108.08 229.201H2067.08L2131.72 76.6953H2181.3L2246.15 229.201ZM2148.67 123.975L2130.51 171.044H2182.46L2164.36 123.765L2157.03 104.31H2155.78L2148.67 123.975Z" fill="white"/>
<path fill-rule="evenodd" clip-rule="evenodd" d="M2352.12 76.6953C2359.51 76.6953 2366.07 77.323 2371.79 78.5781C2377.51 79.8333 2382.46 81.7162 2386.64 84.2266C2390.96 86.7369 2394.52 89.7352 2397.31 93.2217C2400.1 96.7083 2402.12 100.614 2403.38 104.938C2404.77 109.261 2405.47 114.072 2405.47 119.372C2405.47 129.274 2402.89 137.503 2397.73 144.058C2392.71 150.473 2386.01 154.865 2377.64 157.236V158.701C2382.8 159.538 2387.13 161.142 2390.62 163.513C2394.24 165.884 2396.96 169.022 2398.77 172.927C2400.73 176.832 2401.7 181.574 2401.7 187.152V213.511C2401.7 216.44 2401.77 219.09 2401.91 221.461C2402.19 223.832 2402.68 226.412 2403.38 229.201H2364.67C2364.12 226.97 2363.77 224.598 2363.63 222.088C2363.49 219.438 2363.42 216.648 2363.42 213.72V193.01C2363.42 188.407 2362.72 184.711 2361.33 181.922C2359.93 178.993 2357.56 176.902 2354.21 175.646C2351.01 174.252 2346.54 173.554 2340.83 173.554H2295.01V229.201H2256.94V76.6953H2352.12ZM2295.01 146.149H2339.78C2349.96 146.149 2357 144.266 2360.91 140.501C2364.81 136.596 2366.77 131.505 2366.77 125.229C2366.77 121.603 2366.14 118.535 2364.88 116.024C2363.63 113.375 2361.75 111.353 2359.24 109.958C2356.86 108.424 2354.01 107.308 2350.66 106.61C2347.45 105.913 2343.82 105.564 2339.78 105.564H2295.01V146.149Z" fill="white"/>
<path d="M2551.92 106.82H2460.08V138.2H2541.46V166.232H2460.08V199.076H2552.34V229.201H2422.01V76.6953H2551.92V106.82Z" fill="white"/>
<path d="M2585.85 229.201H2571.21V76.6953H2585.85V229.201Z" fill="white"/>
<path d="M2874.36 89.457H2815.57V229.201H2800.93V89.457H2742.14V76.6953H2874.36V89.457Z" fill="white"/>
<path d="M105.25 97.0635H27.8682V145.146H100.108V167.157H27.8682V228.917H0V75.0527H105.25V97.0635Z" fill="white"/>
<path d="M487.112 117.792C490.113 117.792 492.257 118.077 493.543 118.646V144.077C492.829 143.792 491.827 143.65 490.541 143.65C489.255 143.508 487.682 143.438 485.824 143.438C475.393 143.439 467.604 145.718 462.46 150.276C457.316 154.835 454.744 162.1 454.744 172.071V228.917H427.733V119.931H454.1V139.981C456.707 133.726 460.349 128.752 465.031 125.061C471.176 120.217 478.538 117.792 487.112 117.792Z" fill="white"/>
<path d="M1029.54 117.792C1032.54 117.792 1034.69 118.077 1035.98 118.646V144.077C1035.26 143.792 1034.26 143.65 1032.97 143.65C1031.69 143.508 1030.11 143.438 1028.26 143.438C1017.83 143.439 1010.04 145.718 1004.89 150.276C999.749 154.835 997.174 162.099 997.174 172.071V228.917H970.166V119.931H996.533V139.981C999.141 133.726 1002.78 128.752 1007.46 125.061C1013.61 120.217 1020.97 117.792 1029.54 117.792Z" fill="white"/>
</svg>
