<svg width="250" height="250" viewBox="0 0 250 250" fill="none" xmlns="http://www.w3.org/2000/svg">
<path d="M84.4062 191C80.0355 196.834 78.6669 204.204 80.3008 211H58V191H84.4062Z" fill="white"/>
<path d="M192 211H131.941L151.941 191H192V211Z" fill="white"/>
<path d="M233 175H167.941L187.941 155H233V175Z" fill="white"/>
<path d="M233 139H201.824C204.725 132.667 204.725 125.333 201.824 119H233V139Z" fill="white"/>
<path d="M120.059 103H102V84.9414L120.059 103Z" fill="white"/>
<path d="M233 103H187.941L167.941 83H233V103Z" fill="white"/>
<path d="M80.3008 47C78.6669 53.7964 80.0355 61.1661 84.4062 67H38V47H80.3008Z" fill="white"/>
<path d="M95.1475 44.1474C99.8338 39.4611 107.432 39.4611 112.118 44.1474L188.485 120.515C193.172 125.201 193.172 132.799 188.485 137.485L112.118 213.852C107.432 218.539 99.8338 218.539 95.1475 213.852C90.4612 209.166 90.4612 201.568 95.1475 196.882L151.029 141H18V117H151.029L95.1475 61.1181C90.4612 56.4318 90.4612 48.8337 95.1475 44.1474Z" fill="white"/>
</svg>
