<svg width="3386" height="307" viewBox="0 0 3386 307" fill="none" xmlns="http://www.w3.org/2000/svg">
<path d="M1311.78 3.10547L1230.59 306.105L1219 303L1300.19 0L1311.78 3.10547Z" fill="white" fill-opacity="0.17"/>
<path d="M137.125 188.74C137.125 195.436 138.768 200.494 142.055 203.913C145.484 207.332 150.272 209.042 156.417 209.042C161.99 209.042 166.848 207.759 170.992 205.194C175.279 202.63 178.64 199.07 181.069 194.512C183.642 189.81 184.926 184.538 184.926 178.697V119.931H212.149V228.917H185.783V208.603C182.309 214.825 177.598 219.962 171.637 224.003C164.635 228.704 156.346 231.053 146.771 231.053C139.198 231.053 132.624 229.487 127.051 226.354C121.62 223.077 117.403 218.658 114.402 213.102C111.545 207.546 110.114 201.277 110.114 194.297V119.931H137.125V188.74Z" fill="white"/>
<path d="M267.607 119.931H297.401V141.087H267.607V193.658C267.608 198.928 269.034 202.846 271.892 205.41C274.75 207.974 279.253 209.258 285.397 209.258C287.826 209.258 289.971 209.115 291.828 208.83C293.828 208.403 295.687 207.904 297.401 207.334V228.274C295.687 229.129 293.258 229.771 290.114 230.198C286.971 230.768 283.47 231.053 279.611 231.053C266.178 231.053 256.244 227.92 249.813 221.651C243.526 215.24 240.384 205.695 240.384 193.016V141.087H219.375V119.931H240.384V95.1396L267.607 85.0957V119.931Z" fill="white"/>
<path d="M332.662 188.74C332.662 195.436 334.305 200.494 337.591 203.913C341.02 207.332 345.808 209.042 351.953 209.042C357.526 209.042 362.387 207.759 366.531 205.194C370.818 202.63 374.177 199.07 376.606 194.512C379.179 189.81 380.463 184.538 380.463 178.697V119.931H407.689V228.917H381.322V208.599C377.848 214.823 373.135 219.961 367.173 224.003C360.171 228.704 351.882 231.053 342.308 231.053C334.734 231.053 328.161 229.487 322.588 226.354C317.157 223.077 312.94 218.658 309.938 213.102C307.081 207.546 305.65 201.277 305.65 194.297V119.931H332.662V188.74Z" fill="white"/>
<path fill-rule="evenodd" clip-rule="evenodd" d="M549.04 117.792C559.901 117.792 569.334 120.071 577.337 124.63C585.34 129.046 591.557 135.318 595.987 143.438C600.417 151.559 602.631 161.033 602.631 171.859C602.631 173.854 602.561 175.707 602.418 177.416C602.275 179.125 602.059 180.836 601.773 182.545H519.272C520.234 190.452 522.725 196.791 526.749 201.562C532.179 207.688 539.824 210.751 549.685 210.751C555.401 210.751 560.404 209.683 564.691 207.546C568.977 205.409 572.121 202.133 574.121 197.718H599.631C596.058 207.975 589.983 216.096 581.409 222.079C572.978 228.062 562.33 231.053 549.469 231.053C537.894 231.053 527.747 228.632 519.03 223.788C510.457 218.944 503.74 212.248 498.882 203.701C494.166 195.153 491.807 185.323 491.807 174.211C491.807 163.099 494.166 153.337 498.882 144.932C503.74 136.385 510.457 129.762 519.03 125.061C527.604 120.217 537.608 117.792 549.04 117.792ZM548.612 138.094C539.467 138.094 532.179 141.23 526.749 147.498C523.224 151.677 520.882 157.092 519.707 163.74H575.188C574.509 156.008 572.229 150.021 568.335 145.786C563.619 140.658 557.043 138.094 548.612 138.094Z" fill="white"/>
<path fill-rule="evenodd" clip-rule="evenodd" d="M641.279 138.156C643.615 132.776 647.33 128.338 652.427 124.845C659.429 120.144 668.076 117.792 678.364 117.792C688.081 117.792 696.513 120.144 703.658 124.845C710.946 129.404 716.591 135.888 720.592 144.293C724.593 152.698 726.594 162.599 726.594 173.995C726.594 185.535 724.523 195.58 720.379 204.128C716.235 212.676 710.445 219.302 703.014 224.003C695.583 228.704 686.793 231.053 676.647 231.053C666.216 231.053 657.641 228.632 650.925 223.788C646.2 220.204 642.776 215.661 640.635 210.164V228.917H614.269V75.0527H641.279V138.156ZM669.575 139.803C661.001 139.803 654.07 142.869 648.782 148.995C643.495 154.978 640.851 163.454 640.851 174.423C640.851 185.392 643.495 193.87 648.782 199.854C654.07 205.837 661.071 208.83 669.788 208.83C678.505 208.83 685.436 205.837 690.581 199.854C695.726 193.728 698.297 185.18 698.297 174.211C698.297 163.241 695.655 154.763 690.368 148.779C685.224 142.796 678.292 139.803 669.575 139.803Z" fill="white"/>
<path fill-rule="evenodd" clip-rule="evenodd" d="M790.029 117.792C801.748 117.792 811.966 120.217 820.684 125.061C829.4 129.762 836.189 136.315 841.048 144.72C845.906 153.125 848.336 162.883 848.336 173.995C848.336 185.108 845.834 195.011 840.832 203.701C835.973 212.249 829.185 218.944 820.468 223.788C811.751 228.632 801.604 231.053 790.029 231.053C778.455 231.053 768.238 228.631 759.378 223.788C750.661 218.944 743.871 212.249 739.013 203.701C734.154 195.011 731.723 185.107 731.723 173.995C731.723 162.883 734.154 153.125 739.013 144.72C743.872 136.314 750.661 129.762 759.378 125.061C768.238 120.217 778.454 117.792 790.029 117.792ZM790.029 139.375C781.313 139.375 774.095 142.439 768.379 148.564C762.663 154.69 759.807 163.098 759.807 173.783C759.807 181.048 761.09 187.387 763.662 192.8C766.377 198.071 769.951 202.206 774.381 205.198C778.954 208.047 784.171 209.47 790.029 209.47C795.745 209.47 800.892 208.047 805.465 205.198C810.038 202.206 813.61 198.071 816.183 192.8C818.754 187.387 820.039 181.048 820.039 173.783C820.039 163.098 817.183 154.69 811.467 148.564C805.894 142.439 798.746 139.375 790.029 139.375Z" fill="white"/>
<path fill-rule="evenodd" clip-rule="evenodd" d="M905.727 117.792C920.731 117.792 932.093 121.213 939.81 128.051C947.526 134.747 951.385 144.65 951.385 157.757V207.118C951.385 210.537 951.598 214.03 952.026 217.592C952.598 221.153 953.385 224.928 954.385 228.917H927.377C926.662 226.068 926.092 222.932 925.663 219.513C925.476 217.27 925.355 214.721 925.29 211.866C922.418 217.414 918.401 221.817 913.227 225.069C906.796 229.058 898.866 231.053 889.435 231.053C878.431 231.053 869.642 228.347 863.068 222.934C856.638 217.377 853.422 209.968 853.422 200.708C853.422 190.736 857.066 182.829 864.354 176.988C871.642 171.147 881.931 167.228 895.221 165.233L924.374 160.845V155.405C924.374 149.707 922.731 145.43 919.444 142.581C916.301 139.59 911.442 138.094 904.87 138.094C898.44 138.094 893.293 139.305 889.435 141.727C885.719 144.006 883.433 147.356 882.575 151.772H856.638C857.781 141.658 862.638 133.465 871.212 127.196C879.786 120.928 891.293 117.792 905.727 117.792ZM899.725 181.69C893.294 182.688 888.433 184.468 885.146 187.032C882.003 189.597 880.43 193.159 880.43 197.718C880.43 201.849 881.933 205.055 884.934 207.334C887.934 209.471 892.079 210.539 897.366 210.539C905.083 210.539 911.514 208.614 916.658 204.768C921.802 200.921 924.374 196.22 924.374 190.664V177.947L899.725 181.69Z" fill="white"/>
<path fill-rule="evenodd" clip-rule="evenodd" d="M1147 228.917H1120.63V210.992C1118.23 216.151 1114.45 220.491 1109.27 224.003C1102.13 228.704 1093.62 231.053 1083.76 231.053C1073.76 231.053 1065.04 228.773 1057.61 224.215C1050.32 219.514 1044.68 212.961 1040.68 204.556C1036.68 196.15 1034.67 186.247 1034.67 174.85C1034.67 163.311 1036.75 153.267 1040.89 144.72C1045.03 136.172 1050.82 129.546 1058.25 124.845C1065.83 120.144 1074.62 117.792 1084.62 117.792C1094.91 117.792 1103.41 120.287 1110.13 125.272C1114.37 128.332 1117.58 132.16 1119.77 136.754V75.0527H1147V228.917ZM1091.48 140.018C1082.91 140.018 1075.97 143.081 1070.69 149.207C1065.4 155.191 1062.75 163.668 1062.75 174.638C1062.75 185.607 1065.4 194.085 1070.69 200.068C1075.97 206.051 1082.98 209.042 1091.69 209.042C1100.41 209.042 1107.34 206.051 1112.49 200.068C1117.77 193.942 1120.42 185.393 1120.42 174.423C1120.42 163.454 1117.77 154.978 1112.49 148.995C1107.2 143.012 1100.2 140.018 1091.48 140.018Z" fill="white"/>
<path d="M105.25 97.0635H27.8682V145.146H100.108V167.157H27.8682V228.917H0V75.0527H105.25V97.0635Z" fill="white"/>
<path d="M487.112 117.792C490.113 117.792 492.257 118.077 493.543 118.646V144.077C492.829 143.792 491.827 143.65 490.541 143.65C489.255 143.508 487.682 143.438 485.824 143.438C475.393 143.439 467.604 145.718 462.46 150.276C457.316 154.835 454.744 162.1 454.744 172.071V228.917H427.733V119.931H454.1V139.981C456.707 133.726 460.349 128.752 465.031 125.061C471.176 120.217 478.538 117.792 487.112 117.792Z" fill="white"/>
<path d="M1029.54 117.792C1032.54 117.792 1034.69 118.077 1035.98 118.646V144.077C1035.26 143.792 1034.26 143.65 1032.97 143.65C1031.69 143.508 1030.11 143.438 1028.26 143.438C1017.83 143.439 1010.04 145.718 1004.89 150.276C999.749 154.835 997.174 162.099 997.174 172.071V228.917H970.166V119.931H996.533V139.981C999.141 133.726 1002.78 128.752 1007.46 125.061C1013.61 120.217 1020.97 117.792 1029.54 117.792Z" fill="white"/>
<path fill-rule="evenodd" clip-rule="evenodd" d="M1439.36 236.335C1451.77 240.489 1465.83 242.566 1481.55 242.566C1497.1 242.566 1511 240.489 1523.25 236.335C1535.66 232.021 1546.25 225.949 1555.02 218.12C1563.79 210.291 1570.41 200.865 1574.87 189.84C1579.51 178.816 1581.82 166.514 1581.82 152.933C1581.82 139.512 1579.51 127.369 1574.87 116.505C1570.41 105.48 1563.79 96.0537 1555.02 88.2248C1546.41 80.2361 1535.91 74.1647 1523.5 70.0107C1511.25 65.6968 1497.27 63.5398 1481.55 63.5398C1465.83 63.5398 1451.77 65.6968 1439.36 70.0107C1426.95 74.1647 1416.36 80.1562 1407.59 87.9851C1398.98 95.814 1392.36 105.241 1387.73 116.265C1383.1 127.289 1380.78 139.512 1380.78 152.933C1380.78 166.514 1383.02 178.816 1387.48 189.84C1392.12 200.705 1398.82 210.132 1407.59 218.12C1416.36 225.949 1426.95 232.021 1439.36 236.335ZM1515.31 207.096C1505.87 211.889 1494.62 214.286 1481.55 214.286C1471.79 214.286 1463.02 212.928 1455.24 210.212C1447.46 207.495 1440.76 203.581 1435.14 198.468C1429.68 193.196 1425.37 186.805 1422.23 179.295C1419.25 171.626 1417.76 162.839 1417.76 152.933C1417.76 139.832 1420.33 128.727 1425.46 119.62C1430.75 110.513 1438.2 103.643 1447.8 99.0095C1457.39 94.2163 1468.64 91.8197 1481.55 91.8197C1491.15 91.8197 1499.83 93.1778 1507.61 95.8939C1515.55 98.61 1522.26 102.604 1527.72 107.877C1533.34 112.99 1537.56 119.381 1540.37 127.05C1543.35 134.559 1544.84 143.187 1544.84 152.933C1544.84 166.034 1542.28 177.139 1537.15 186.246C1532.02 195.353 1524.74 202.303 1515.31 207.096Z" fill="white"/>
<path d="M2160.69 235.376C2173.27 240.169 2189.4 242.566 2209.09 242.566C2227.13 242.566 2242.27 240.489 2254.51 236.335C2266.76 232.021 2276.02 225.949 2282.31 218.12C2288.76 210.132 2291.99 200.705 2291.99 189.84C2291.99 180.094 2290.25 172.106 2286.78 165.875C2283.3 159.484 2278.26 154.371 2271.64 150.536C2265.02 146.702 2256.91 143.746 2247.31 141.669C2237.72 139.592 2226.71 137.754 2214.3 136.157C2202.72 134.879 2193.29 133.52 2186.01 132.083C2178.89 130.485 2173.68 128.168 2170.37 125.132C2167.06 122.097 2165.41 117.623 2165.41 111.711C2165.41 106.758 2166.98 102.524 2170.12 99.0095C2173.27 95.4945 2177.82 92.7783 2183.77 90.861C2189.9 88.9438 2197.18 87.9851 2205.62 87.9851C2214.06 87.9851 2221.34 89.0236 2227.46 91.1007C2233.58 93.018 2238.38 95.9738 2241.85 99.9681C2245.49 103.962 2247.56 109.235 2248.06 115.786H2285.04C2284.38 104.761 2280.82 95.4146 2274.37 87.7455C2268.08 79.9166 2259.23 73.9251 2247.81 69.771C2236.39 65.6169 2222.82 63.5398 2207.11 63.5398C2190.89 63.5398 2176.82 65.6169 2164.91 69.771C2153.16 73.7653 2144.06 79.597 2137.61 87.2661C2131.16 94.9353 2127.93 104.362 2127.93 115.546C2127.93 124.174 2129.58 131.443 2132.89 137.355C2136.37 143.107 2141.33 147.82 2147.79 151.495C2154.4 155.17 2162.43 158.126 2171.86 160.362C2181.46 162.599 2192.3 164.437 2204.38 165.875C2212.81 166.833 2220.09 167.872 2226.22 168.99C2232.5 169.949 2237.72 171.307 2241.85 173.064C2245.99 174.822 2249.05 177.298 2251.04 180.494C2253.19 183.529 2254.26 187.524 2254.26 192.477C2254.26 197.749 2252.61 202.303 2249.3 206.137C2245.99 209.972 2241.11 212.928 2234.66 215.005C2228.2 216.922 2220.09 217.881 2210.33 217.881C2199.91 217.881 2191.05 216.603 2183.77 214.046C2176.66 211.49 2171.2 207.815 2167.39 203.022C2163.59 198.069 2161.52 192.077 2161.19 185.047H2122.97C2123.3 196.231 2126.52 206.217 2132.65 215.005C2138.77 223.633 2148.12 230.423 2160.69 235.376Z" fill="white"/>
<path fill-rule="evenodd" clip-rule="evenodd" d="M2288.25 240.409L2368.17 65.6967H2415.58L2495.5 240.409H2456.04L2439.9 202.782H2343.81L2327.72 240.409H2288.25ZM2402.18 114.827L2428.59 176.42H2355.08L2381.33 115.067L2391.25 91.58H2392.5L2402.18 114.827Z" fill="white"/>
<path d="M2503.39 65.6967V240.409H2537.64V165.395L2536.65 97.0921H2538.64L2557.25 148.14L2593.98 240.409H2627L2664.23 146.941L2682.34 96.8525H2684.58L2683.83 164.916V240.409H2717.84V65.6967H2662.49L2627 162.28L2611.61 203.022H2609.62L2594.23 162.28L2558.49 65.6967H2503.39Z" fill="white"/>
<path fill-rule="evenodd" clip-rule="evenodd" d="M2738.81 240.409V65.6967H2830.15C2846.04 65.6967 2859.03 68.0134 2869.12 72.6469C2879.38 77.1205 2886.99 83.5913 2891.95 92.0593C2897.08 100.367 2899.65 110.273 2899.65 121.777C2899.65 134.399 2896.75 144.864 2890.96 153.173C2885.33 161.481 2877.31 167.712 2866.88 171.866C2856.46 176.02 2844.13 178.097 2829.9 178.097H2775.3V240.409H2738.81ZM2826.18 152.693H2775.3V93.4973H2826.18C2837.6 93.4973 2846.53 95.8939 2852.99 100.687C2859.44 105.32 2862.67 112.75 2862.67 122.975C2862.67 132.082 2859.69 139.352 2853.73 144.784C2847.77 150.057 2838.59 152.693 2826.18 152.693Z" fill="white"/>
<path d="M2910.97 65.6967V240.409H3042.02V211.17H2947.46V65.6967H2910.97Z" fill="white"/>
<path d="M3051.38 240.409V65.6967H3202.04V93.9766H3087.87V138.553H3189.88V164.916H3087.87V212.129H3202.54V240.409H3051.38Z" fill="white"/>
<path fill-rule="evenodd" clip-rule="evenodd" d="M3215.06 240.409V65.6967H3324.27C3332.54 65.6967 3339.99 66.4157 3346.6 67.8537C3353.22 69.2916 3358.93 71.4486 3363.73 74.3245C3368.69 77.0406 3372.75 80.316 3375.89 84.1505C3379.2 87.9851 3381.6 92.3788 3383.09 97.3318C3384.74 102.285 3385.57 107.717 3385.57 113.629C3385.57 124.813 3382.59 134.16 3376.64 141.669C3370.85 149.018 3362.82 154.131 3352.56 157.007V158.685C3359.01 159.643 3364.31 161.561 3368.45 164.437C3372.75 167.153 3375.89 170.827 3377.88 175.461C3380.03 179.935 3381.1 185.447 3381.1 191.997V222.434C3381.1 225.63 3381.19 228.665 3381.35 231.541C3381.68 234.257 3382.35 237.213 3383.34 240.409H3346.36C3345.53 237.852 3344.95 235.136 3344.62 232.26C3344.45 229.225 3344.37 225.949 3344.37 222.434V197.51C3344.37 191.598 3343.46 186.885 3341.64 183.37C3339.99 179.695 3337.01 176.979 3332.71 175.221C3328.4 173.464 3322.36 172.585 3314.59 172.585H3251.54V240.409H3215.06ZM3312.85 146.941H3251.54V92.7783H3312.85C3318.14 92.7783 3322.94 93.2576 3327.24 94.2162C3331.71 95.1749 3335.52 96.6927 3338.66 98.7698C3341.81 100.847 3344.21 103.563 3345.86 106.918C3347.51 110.273 3348.34 114.268 3348.34 118.901C3348.34 127.209 3345.69 134 3340.4 139.272C3335.27 144.385 3326.09 146.941 3312.85 146.941Z" fill="white"/>
<path d="M1929.95 240.409V65.6967H1974.63L2075.15 195.113H2076.89L2075.64 140.231V65.6967H2111.88V240.409H2067.7L1967.18 111.951H1965.44L1966.68 164.676V240.409H1929.95Z" fill="white"/>
<path d="M1766.27 65.6967V240.409H1917.43V212.129H1802.76V164.916H1904.77V138.553H1802.76V93.9766H1916.93V65.6967H1766.27Z" fill="white"/>
<path fill-rule="evenodd" clip-rule="evenodd" d="M1594.11 240.409V65.6967H1685.45C1701.34 65.6967 1714.33 68.0134 1724.42 72.6469C1734.68 77.1205 1742.29 83.5913 1747.25 92.0593C1752.38 100.367 1754.95 110.273 1754.95 121.777C1754.95 134.399 1752.05 144.864 1746.26 153.173C1740.63 161.481 1732.61 167.712 1722.19 171.866C1711.76 176.02 1699.43 178.097 1685.2 178.097H1630.6V240.409H1594.11ZM1630.6 152.693H1681.48C1693.89 152.693 1703.07 150.057 1709.03 144.784C1714.99 139.352 1717.97 132.082 1717.97 122.975C1717.97 112.75 1714.74 105.32 1708.29 100.687C1701.83 95.8939 1692.9 93.4973 1681.48 93.4973H1630.6V152.693Z" fill="white"/>
</svg>
